<svg width="500" height="500" viewBox="0 0 500 500" fill="none" xmlns="http://www.w3.org/2000/svg">
<path d="M347.58 395.166C341.007 402.467 330.726 405.341 321.568 401.785C317.632 400.257 313.726 398.63 309.855 396.907C259.399 374.442 217.349 336.581 189.733 288.748C162.117 240.916 150.353 185.569 156.126 130.639C156.568 126.428 157.112 122.236 157.756 118.065C159.255 108.356 166.885 100.889 176.495 98.8467L218.55 89.9079C234.826 86.4481 249.874 99.6029 250.82 116.215C251.394 126.291 252.56 136.368 254.328 146.393C255.214 151.417 256.246 156.401 257.421 161.34C260.203 173.032 252.97 185.134 241.114 187.106C223.896 189.971 214.838 209.151 223.566 224.268L262.491 291.688C271.218 306.805 292.358 308.551 303.448 295.071C311.504 285.278 326.326 284.922 335.743 293.415C338.026 295.474 340.349 297.495 342.711 299.478C351.662 306.989 361.068 313.847 370.853 320.025C385.099 329.021 389.222 348.919 377.948 361.44L347.58 395.166Z" stroke="#EBB5A8" stroke-width="5" stroke-linecap="round" stroke-linejoin="round"/>
</svg>
