<svg width="120" height="120" viewBox="0 0 120 120" fill="none" xmlns="http://www.w3.org/2000/svg">
<path d="M83.4195 94.84C81.8418 96.5921 79.3744 97.2819 77.1765 96.4286C76.2319 96.0617 75.2945 95.6714 74.3654 95.2578C62.2558 89.8662 52.1638 80.7795 45.536 69.2997C38.9082 57.82 36.0848 44.5366 37.4703 31.3535C37.5765 30.3429 37.7071 29.3367 37.8615 28.3358C38.2214 26.0056 40.0526 24.2136 42.3588 23.7233L52.452 21.578C56.3583 20.7477 59.9698 23.9048 60.1969 27.8918C60.3347 30.31 60.6146 32.7283 61.0389 35.1345C61.2514 36.3402 61.4992 37.5364 61.7811 38.7217C62.4488 41.5278 60.7129 44.4324 57.8676 44.9056C53.7352 45.5931 51.5613 50.1964 53.656 53.8244L62.998 70.0053C65.0926 73.6332 70.1661 74.0523 72.8276 70.8172C74.7612 68.4668 78.3183 68.3813 80.5784 70.4197C81.1263 70.9139 81.6838 71.399 82.2509 71.8748C84.3991 73.6774 86.6564 75.3233 89.0048 76.8061C92.424 78.9651 93.4134 83.7406 90.7076 86.7457L83.4195 94.84Z" stroke="#EBB5A8" stroke-width="5" stroke-linecap="round" stroke-linejoin="round"/>
</svg>
